<?xml version="1.0" encoding="utf-8"?>
<!-- Generator: Adobe Illustrator 25.2.1, SVG Export Plug-In . SVG Version: 6.00 Build 0)  -->
<svg version="1.1" id="Capa_1" xmlns="http://www.w3.org/2000/svg" xmlns:xlink="http://www.w3.org/1999/xlink" x="0px" y="0px"
	 viewBox="0 0 255.12 127.56" style="enable-background:new 0 0 255.12 127.56;" xml:space="preserve">
<style type="text/css">
	.st0{fill:#BE1622;}
	.st1{fill:#020203;}
	.st2{fill:none;}
	.st3{font-family:'Georgia';}
	.st4{font-size:13px;}
	.st5{fill:none;stroke:#000000;stroke-width:0.75;stroke-miterlimit:10;}
	.st6{fill:none;stroke:#BE1622;stroke-width:0.75;stroke-miterlimit:10;}
</style>
<path class="st0" d="M95.4,71.75c-0.79,0.93-1.71,1.64-2.75,2.12c-1.04,0.49-2.17,0.73-3.38,0.73c-1.53,0-2.97-0.37-4.3-1.1
	c-1.33-0.73-2.86-1.98-4.58-3.74c-2.3-0.12-4.37-0.73-6.21-1.85c-1.85-1.11-3.29-2.59-4.32-4.44c-1.03-1.85-1.55-3.89-1.55-6.15
	c0-2.34,0.56-4.47,1.69-6.37c1.13-1.9,2.67-3.39,4.65-4.47c1.97-1.08,4.19-1.62,6.65-1.62c2.44,0,4.64,0.54,6.62,1.62
	c1.97,1.08,3.52,2.56,4.63,4.46c1.11,1.89,1.67,4.02,1.67,6.39c0,2-0.4,3.83-1.2,5.5c-0.8,1.67-1.93,3.08-3.38,4.21
	c-1.45,1.14-3.12,1.93-5,2.37c0.81,0.86,1.6,1.48,2.35,1.86c0.75,0.38,1.53,0.57,2.32,0.57c1.72,0,3.2-0.7,4.46-2.09L95.4,71.75z
	 M73.03,62.12c0.82,1.43,1.96,2.55,3.41,3.36c1.45,0.81,3.07,1.22,4.86,1.22c1.76,0,3.37-0.41,4.8-1.22
	c1.44-0.81,2.57-1.93,3.4-3.36c0.82-1.43,1.24-3.02,1.24-4.79c0-1.76-0.41-3.36-1.24-4.79c-0.82-1.43-1.96-2.55-3.4-3.36
	c-1.44-0.81-3.04-1.22-4.8-1.22c-1.79,0-3.41,0.41-4.86,1.22c-1.45,0.81-2.59,1.93-3.41,3.36c-0.82,1.43-1.24,3.02-1.24,4.79
	C71.79,59.1,72.2,60.7,73.03,62.12"/>
<path class="st1" d="M102.05,67.02c-1.81-1.86-2.72-4.53-2.72-8.01V45.15h3.48v13.72c0,5.22,2.29,7.83,6.86,7.83
	c2.23,0,3.93-0.64,5.12-1.93c1.18-1.29,1.78-3.26,1.78-5.9V45.15h3.38v13.86c0,3.51-0.91,6.18-2.72,8.03
	c-1.81,1.85-4.34,2.77-7.59,2.77C106.39,69.8,103.86,68.87,102.05,67.02"/>
<rect x="127.08" y="45.15" class="st1" width="3.48" height="24.37"/>
<polygon class="st1" points="160.48,69.52 160.44,51.77 151.63,66.56 150.03,66.56 141.22,51.87 141.22,69.52 137.88,69.52 
	137.88,45.15 140.73,45.15 150.9,62.28 160.93,45.15 163.78,45.15 163.82,69.52 "/>
<rect x="171.13" y="45.15" class="st1" width="3.48" height="24.37"/>
<polygon class="st1" points="189.86,58.7 185.41,63.22 185.41,69.52 181.92,69.52 181.92,45.15 185.41,45.15 185.41,58.76 
	198.64,45.15 202.61,45.15 192.2,56.12 203.27,69.52 199.2,69.52 "/>
<path class="st1" d="M221.51,63.43h-12.95l-2.68,6.09h-3.59l11.04-24.37h3.45l11.07,24.37h-3.66L221.51,63.43z M220.3,60.64
	l-5.26-11.94l-5.26,11.94H220.3z"/>
<polygon class="st0" points="231.47,45.15 234.95,45.15 234.95,66.49 248.15,66.49 248.15,69.52 231.47,69.52 "/>
<rect x="59.19" y="79.16" class="st2" width="198.12" height="18.41"/>
<text transform="matrix(1 0 0 1 66.2329 88.9852)" class="st3 st4">Academia de Potencial Humano</text>
<path class="st0" d="M36.09,53.18l0,18.45h-0.03c-5.1,0-9.22-4.13-9.22-9.22c0-5.09,4.13-9.22,9.22-9.22"/>
<path class="st5" d="M45.35,61.68c0.36,5.65-4.3,10.31-9.95,9.95c-4.66-0.29-8.44-4.07-8.73-8.73c-0.36-5.65,4.3-10.31,9.95-9.95
	C41.27,53.24,45.05,57.02,45.35,61.68z"/>
<path class="st6" d="M41.32,43.02c0.33,3.38-2.48,6.19-5.86,5.86c-2.5-0.25-4.52-2.27-4.77-4.77c-0.33-3.38,2.48-6.19,5.86-5.86
	C39.05,38.5,41.07,40.52,41.32,43.02z"/>
<path class="st6" d="M24.78,71.29c0.33,3.38-2.48,6.19-5.86,5.86c-2.5-0.25-4.52-2.27-4.77-4.77c-0.33-3.38,2.48-6.19,5.86-5.86
	C22.51,66.77,24.53,68.79,24.78,71.29z"/>
<path class="st6" d="M57.77,71.29c0.33,3.38-2.48,6.19-5.86,5.86c-2.5-0.25-4.52-2.27-4.77-4.77C46.81,69,49.62,66.19,53,66.52
	C55.5,66.77,57.52,68.79,57.77,71.29z"/>
<polygon class="st5" points="36.01,43.29 19.56,71.79 52.46,71.79 "/>
<path class="st6" d="M48.52,61.73c0.38,7.43-5.73,13.54-13.16,13.16c-6.36-0.32-11.54-5.49-11.86-11.86
	c-0.38-7.43,5.73-13.54,13.16-13.16C43.02,50.2,48.19,55.37,48.52,61.73z"/>
<path class="st5" d="M37.62,43.13c0.27,1.24-0.81,2.32-2.05,2.05c-0.63-0.14-1.13-0.64-1.27-1.27c-0.28-1.24,0.81-2.33,2.05-2.05
	C36.98,42,37.48,42.51,37.62,43.13z"/>
<path class="st5" d="M21.17,71.4c0.28,1.24-0.81,2.32-2.05,2.05c-0.63-0.14-1.13-0.64-1.27-1.27c-0.28-1.24,0.81-2.32,2.05-2.05
	C20.52,70.27,21.03,70.78,21.17,71.4z"/>
<path class="st5" d="M54.16,71.4c0.28,1.24-0.81,2.32-2.05,2.05c-0.63-0.14-1.13-0.64-1.27-1.27c-0.28-1.24,0.81-2.32,2.05-2.05
	C53.52,70.27,54.02,70.78,54.16,71.4z"/>
<path class="st6" d="M35.61,37.38c13.98,0,25.31,11.33,25.31,25.31c0,13.98-11.33,25.31-25.31,25.31"/>
<path class="st6" d="M35.96,37.37c-13.99,0-25.33,11.34-25.33,25.33c0,13.99,11.34,25.33,25.33,25.33"/>
</svg>
